<mxfile modified="2021-06-02T08:46:37.014Z" host="app.diagrams.net" agent="5.0 (Macintosh; Intel Mac OS X 10_15_7) AppleWebKit/537.36 (KHTML, like Gecko) Chrome/69.0.3497.100 Safari/537.36" etag="zUQFMRfFN-dJNGP9L22a" version="13.9.9" type="github">
  <diagram id="Z4rZu4gzG-g9UAVYbysw" name="第 1 页">
    <mxGraphModel dx="1586" dy="1096" grid="1" gridSize="10" guides="1" tooltips="1" connect="1" arrows="1" fold="1" page="0" pageScale="1" pageWidth="827" pageHeight="1169" math="0" shadow="0">
      <root>
        <mxCell id="0" />
        <mxCell id="1" parent="0" />
        <mxCell id="7GG59EkyPDcK3Kt1OEhz-5" value="" style="rounded=1;whiteSpace=wrap;html=1;dashed=1;strokeColor=#66B2FF;fontSize=21;" vertex="1" parent="1">
          <mxGeometry x="-46" y="-120" width="170" height="590" as="geometry" />
        </mxCell>
        <mxCell id="gegUZrvBjKPwMkM6OcZD-2" value="" style="rounded=0;whiteSpace=wrap;html=1;strokeColor=none;fillColor=none;" parent="1" vertex="1">
          <mxGeometry x="-60" y="-130" width="980" height="690" as="geometry" />
        </mxCell>
        <mxCell id="gegUZrvBjKPwMkM6OcZD-3" value="" style="rounded=1;whiteSpace=wrap;html=1;strokeColor=#66B2FF;dashed=1;" parent="1" vertex="1">
          <mxGeometry x="-40" y="480" width="950" height="70" as="geometry" />
        </mxCell>
        <mxCell id="gegUZrvBjKPwMkM6OcZD-11" value="资源加速器" style="rounded=0;whiteSpace=wrap;html=1;dashed=1;strokeColor=#6c8ebf;fontSize=16;fillColor=#dae8fc;" parent="1" vertex="1">
          <mxGeometry x="94.5" y="494" width="150" height="40" as="geometry" />
        </mxCell>
        <mxCell id="gegUZrvBjKPwMkM6OcZD-14" value="消息中间件&lt;br style=&quot;font-size: 16px&quot;&gt;" style="rounded=0;whiteSpace=wrap;html=1;dashed=1;strokeColor=#6c8ebf;fontSize=16;fillColor=#dae8fc;" parent="1" vertex="1">
          <mxGeometry x="260.5" y="494" width="150" height="40" as="geometry" />
        </mxCell>
        <mxCell id="gegUZrvBjKPwMkM6OcZD-19" value="对象存储服务" style="rounded=0;whiteSpace=wrap;html=1;dashed=1;strokeColor=#6c8ebf;fontSize=16;fillColor=#dae8fc;" parent="1" vertex="1">
          <mxGeometry x="750" y="494" width="150" height="40" as="geometry" />
        </mxCell>
        <mxCell id="gegUZrvBjKPwMkM6OcZD-20" value="&lt;span style=&quot;font-size: 16px&quot;&gt;弹性计算服务&lt;/span&gt;" style="rounded=0;whiteSpace=wrap;html=1;dashed=1;strokeColor=#6c8ebf;fontSize=21;fillColor=#dae8fc;" parent="1" vertex="1">
          <mxGeometry x="421" y="494" width="150" height="40" as="geometry" />
        </mxCell>
        <mxCell id="gegUZrvBjKPwMkM6OcZD-21" value="文件存储平台" style="rounded=0;whiteSpace=wrap;html=1;dashed=1;strokeColor=#6c8ebf;fontSize=16;fillColor=#dae8fc;" parent="1" vertex="1">
          <mxGeometry x="584" y="494" width="150" height="40" as="geometry" />
        </mxCell>
        <mxCell id="gegUZrvBjKPwMkM6OcZD-26" value="" style="rounded=1;whiteSpace=wrap;html=1;strokeColor=#66B2FF;dashed=1;" parent="1" vertex="1">
          <mxGeometry x="137" y="270" width="590" height="120" as="geometry" />
        </mxCell>
        <mxCell id="gegUZrvBjKPwMkM6OcZD-27" value="" style="rounded=1;whiteSpace=wrap;html=1;strokeColor=#66B2FF;dashed=1;" parent="1" vertex="1">
          <mxGeometry x="140" y="406" width="588" height="60" as="geometry" />
        </mxCell>
        <mxCell id="gegUZrvBjKPwMkM6OcZD-29" value="" style="rounded=1;whiteSpace=wrap;html=1;strokeColor=#66B2FF;dashed=1;" parent="1" vertex="1">
          <mxGeometry x="140" y="-45" width="590" height="225" as="geometry" />
        </mxCell>
        <mxCell id="gegUZrvBjKPwMkM6OcZD-38" value="基&lt;br&gt;础&lt;br&gt;平&lt;br&gt;台&lt;br&gt;" style="text;html=1;resizable=0;autosize=1;align=center;verticalAlign=middle;points=[];fillColor=none;strokeColor=none;rounded=0;dashed=1;fontSize=21;" parent="1" vertex="1">
          <mxGeometry x="143" y="275" width="40" height="110" as="geometry" />
        </mxCell>
        <mxCell id="gegUZrvBjKPwMkM6OcZD-40" value="分布式数据中心" style="rounded=0;whiteSpace=wrap;html=1;dashed=1;strokeColor=none;fontSize=16;fillColor=#fff2cc;" parent="1" vertex="1">
          <mxGeometry x="243" y="417" width="119" height="40" as="geometry" />
        </mxCell>
        <mxCell id="gegUZrvBjKPwMkM6OcZD-47" value="&lt;span style=&quot;font-size: 16px&quot;&gt;消息平台&lt;/span&gt;" style="rounded=0;whiteSpace=wrap;html=1;dashed=1;strokeColor=#82b366;fontSize=21;fillColor=#d5e8d4;" parent="1" vertex="1">
          <mxGeometry x="215" y="280.5" width="100" height="40" as="geometry" />
        </mxCell>
        <mxCell id="gegUZrvBjKPwMkM6OcZD-48" value="&lt;span style=&quot;font-size: 16px&quot;&gt;任务调度平台&lt;/span&gt;" style="rounded=0;whiteSpace=wrap;html=1;dashed=1;strokeColor=#82b366;fontSize=21;fillColor=#d5e8d4;" parent="1" vertex="1">
          <mxGeometry x="343.5" y="280.5" width="113" height="40" as="geometry" />
        </mxCell>
        <mxCell id="gegUZrvBjKPwMkM6OcZD-49" value="&lt;span style=&quot;font-size: 16px&quot;&gt;业务风控&lt;/span&gt;" style="rounded=0;whiteSpace=wrap;html=1;dashed=1;strokeColor=#82b366;fontSize=16;fillColor=#d5e8d4;" parent="1" vertex="1">
          <mxGeometry x="484" y="280.5" width="100" height="40" as="geometry" />
        </mxCell>
        <mxCell id="gegUZrvBjKPwMkM6OcZD-50" value="客群系统" style="rounded=0;whiteSpace=wrap;html=1;dashed=1;strokeColor=#82b366;fontSize=16;fillColor=#d5e8d4;" parent="1" vertex="1">
          <mxGeometry x="613" y="280.5" width="110" height="40" as="geometry" />
        </mxCell>
        <mxCell id="gegUZrvBjKPwMkM6OcZD-52" value="数据平台" style="text;html=1;resizable=0;autosize=1;align=center;verticalAlign=middle;points=[];fillColor=none;strokeColor=none;rounded=0;dashed=1;fontSize=21;" parent="1" vertex="1">
          <mxGeometry x="143" y="422" width="100" height="30" as="geometry" />
        </mxCell>
        <mxCell id="gegUZrvBjKPwMkM6OcZD-55" value="离线数据仓储" style="rounded=0;whiteSpace=wrap;html=1;dashed=1;strokeColor=none;fontSize=16;fillColor=#fff2cc;" parent="1" vertex="1">
          <mxGeometry x="472.5" y="416" width="105" height="40" as="geometry" />
        </mxCell>
        <mxCell id="gegUZrvBjKPwMkM6OcZD-56" value="实时数据计算平台" style="rounded=0;whiteSpace=wrap;html=1;dashed=1;strokeColor=none;fontSize=16;fillColor=#fff2cc;" parent="1" vertex="1">
          <mxGeometry x="582" y="417" width="133" height="40" as="geometry" />
        </mxCell>
        <mxCell id="gegUZrvBjKPwMkM6OcZD-57" value="" style="rounded=1;whiteSpace=wrap;html=1;strokeColor=#66B2FF;dashed=1;" parent="1" vertex="1">
          <mxGeometry x="140" y="192" width="588" height="60" as="geometry" />
        </mxCell>
        <mxCell id="gegUZrvBjKPwMkM6OcZD-58" value="资金账户" style="rounded=0;whiteSpace=wrap;html=1;dashed=1;strokeColor=#36393d;fontSize=16;fillColor=#ffcccc;" parent="1" vertex="1">
          <mxGeometry x="236" y="203" width="87" height="40" as="geometry" />
        </mxCell>
        <mxCell id="gegUZrvBjKPwMkM6OcZD-59" value="资金核心" style="text;html=1;resizable=0;autosize=1;align=center;verticalAlign=middle;points=[];fillColor=none;strokeColor=none;rounded=0;dashed=1;fontSize=21;" parent="1" vertex="1">
          <mxGeometry x="143" y="208" width="94" height="29" as="geometry" />
        </mxCell>
        <mxCell id="gegUZrvBjKPwMkM6OcZD-60" value="在线支付" style="rounded=0;whiteSpace=wrap;html=1;dashed=1;strokeColor=#36393d;fontSize=16;fillColor=#ffcccc;" parent="1" vertex="1">
          <mxGeometry x="335" y="203" width="87" height="40" as="geometry" />
        </mxCell>
        <mxCell id="gegUZrvBjKPwMkM6OcZD-61" value="结算系统" style="rounded=0;whiteSpace=wrap;html=1;dashed=1;strokeColor=#36393d;fontSize=16;fillColor=#ffcccc;" parent="1" vertex="1">
          <mxGeometry x="434" y="203" width="87" height="40" as="geometry" />
        </mxCell>
        <mxCell id="gegUZrvBjKPwMkM6OcZD-62" value="对账平台" style="rounded=0;whiteSpace=wrap;html=1;dashed=1;strokeColor=#36393d;fontSize=16;fillColor=#ffcccc;" parent="1" vertex="1">
          <mxGeometry x="631.5" y="203" width="87" height="40" as="geometry" />
        </mxCell>
        <mxCell id="gegUZrvBjKPwMkM6OcZD-63" value="财务风控" style="rounded=0;whiteSpace=wrap;html=1;dashed=1;strokeColor=#36393d;fontSize=16;fillColor=#ffcccc;" parent="1" vertex="1">
          <mxGeometry x="534" y="203" width="87" height="40" as="geometry" />
        </mxCell>
        <mxCell id="gegUZrvBjKPwMkM6OcZD-64" value="业&lt;br&gt;&lt;br&gt;务&lt;br&gt;&lt;br&gt;中&lt;br&gt;&lt;br&gt;台&lt;br&gt;&lt;br&gt;" style="text;html=1;resizable=0;autosize=1;align=center;verticalAlign=middle;points=[];fillColor=none;strokeColor=none;rounded=0;dashed=1;fontSize=21;" parent="1" vertex="1">
          <mxGeometry x="154" y="-27.5" width="31" height="204" as="geometry" />
        </mxCell>
        <mxCell id="gegUZrvBjKPwMkM6OcZD-65" value="&lt;span style=&quot;font-size: 16px&quot;&gt;头条社区&lt;/span&gt;" style="rounded=0;whiteSpace=wrap;html=1;dashed=1;strokeColor=#36393d;fontSize=21;fillColor=#cdeb8b;" parent="1" vertex="1">
          <mxGeometry x="210" y="120" width="100" height="40" as="geometry" />
        </mxCell>
        <mxCell id="gegUZrvBjKPwMkM6OcZD-66" value="&lt;span style=&quot;font-size: 16px&quot;&gt;展业工具&lt;/span&gt;" style="rounded=0;whiteSpace=wrap;html=1;dashed=1;strokeColor=#36393d;fontSize=21;fillColor=#cdeb8b;" parent="1" vertex="1">
          <mxGeometry x="210" y="70" width="100" height="40" as="geometry" />
        </mxCell>
        <mxCell id="gegUZrvBjKPwMkM6OcZD-67" value="&lt;span style=&quot;font-size: 16px&quot;&gt;会员体系&lt;/span&gt;" style="rounded=0;whiteSpace=wrap;html=1;dashed=1;strokeColor=#36393d;fontSize=21;fillColor=#cdeb8b;" parent="1" vertex="1">
          <mxGeometry x="210" y="20" width="100" height="40" as="geometry" />
        </mxCell>
        <mxCell id="gegUZrvBjKPwMkM6OcZD-68" value="&lt;span style=&quot;font-size: 16px&quot;&gt;用户中台&lt;/span&gt;" style="rounded=0;whiteSpace=wrap;html=1;dashed=1;strokeColor=#36393d;fontSize=21;fillColor=#cdeb8b;" parent="1" vertex="1">
          <mxGeometry x="210" y="-30" width="100" height="40" as="geometry" />
        </mxCell>
        <mxCell id="gegUZrvBjKPwMkM6OcZD-72" value="&lt;span style=&quot;font-size: 16px&quot;&gt;渠道管理&lt;/span&gt;" style="rounded=0;whiteSpace=wrap;html=1;dashed=1;strokeColor=#36393d;fontSize=21;fillColor=#ffcc99;" parent="1" vertex="1">
          <mxGeometry x="345" y="122.5" width="100" height="40" as="geometry" />
        </mxCell>
        <mxCell id="gegUZrvBjKPwMkM6OcZD-73" value="&lt;span style=&quot;font-size: 16px&quot;&gt;佣金结算&lt;/span&gt;" style="rounded=0;whiteSpace=wrap;html=1;dashed=1;strokeColor=#36393d;fontSize=21;fillColor=#ffcc99;" parent="1" vertex="1">
          <mxGeometry x="345" y="72.5" width="100" height="40" as="geometry" />
        </mxCell>
        <mxCell id="gegUZrvBjKPwMkM6OcZD-74" value="&lt;span style=&quot;font-size: 16px&quot;&gt;订单系统&lt;/span&gt;" style="rounded=0;whiteSpace=wrap;html=1;dashed=1;strokeColor=#36393d;fontSize=21;fillColor=#ffcc99;" parent="1" vertex="1">
          <mxGeometry x="345" y="22.5" width="100" height="40" as="geometry" />
        </mxCell>
        <mxCell id="gegUZrvBjKPwMkM6OcZD-75" value="&lt;span style=&quot;font-size: 16px&quot;&gt;积分商城&lt;/span&gt;" style="rounded=0;whiteSpace=wrap;html=1;dashed=1;strokeColor=#36393d;fontSize=21;fillColor=#ffcc99;" parent="1" vertex="1">
          <mxGeometry x="345" y="-27.5" width="100" height="40" as="geometry" />
        </mxCell>
        <mxCell id="gegUZrvBjKPwMkM6OcZD-76" value="&lt;span style=&quot;font-size: 16px&quot;&gt;产品平台&lt;/span&gt;" style="rounded=0;whiteSpace=wrap;html=1;dashed=1;strokeColor=#d6b656;fontSize=21;fillColor=#fff2cc;gradientColor=#ffd966;" parent="1" vertex="1">
          <mxGeometry x="483.5" y="122" width="100" height="40" as="geometry" />
        </mxCell>
        <mxCell id="gegUZrvBjKPwMkM6OcZD-77" value="&lt;span style=&quot;font-size: 16px&quot;&gt;理赔保全&lt;/span&gt;" style="rounded=0;whiteSpace=wrap;html=1;dashed=1;strokeColor=#d6b656;fontSize=21;fillColor=#fff2cc;gradientColor=#ffd966;" parent="1" vertex="1">
          <mxGeometry x="483.5" y="72" width="100" height="40" as="geometry" />
        </mxCell>
        <mxCell id="gegUZrvBjKPwMkM6OcZD-78" value="&lt;span style=&quot;font-size: 16px&quot;&gt;保险网关&lt;/span&gt;" style="rounded=0;whiteSpace=wrap;html=1;dashed=1;strokeColor=#d6b656;fontSize=21;fillColor=#fff2cc;gradientColor=#ffd966;" parent="1" vertex="1">
          <mxGeometry x="483.5" y="22" width="100" height="40" as="geometry" />
        </mxCell>
        <mxCell id="gegUZrvBjKPwMkM6OcZD-79" value="&lt;span style=&quot;font-size: 16px&quot;&gt;出单系统&lt;/span&gt;" style="rounded=0;whiteSpace=wrap;html=1;dashed=1;strokeColor=#d6b656;fontSize=21;fillColor=#fff2cc;gradientColor=#ffd966;" parent="1" vertex="1">
          <mxGeometry x="483.5" y="-28" width="100" height="40" as="geometry" />
        </mxCell>
        <mxCell id="gegUZrvBjKPwMkM6OcZD-80" value="&lt;span style=&quot;font-size: 16px&quot;&gt;产品编辑器&lt;/span&gt;" style="rounded=0;whiteSpace=wrap;html=1;dashed=1;strokeColor=#0e8088;fontSize=21;fillColor=#b0e3e6;" parent="1" vertex="1">
          <mxGeometry x="618.5" y="122.5" width="100" height="40" as="geometry" />
        </mxCell>
        <mxCell id="gegUZrvBjKPwMkM6OcZD-81" value="&lt;span style=&quot;font-size: 16px&quot;&gt;微信生态&lt;/span&gt;" style="rounded=0;whiteSpace=wrap;html=1;dashed=1;strokeColor=#0e8088;fontSize=21;fillColor=#b0e3e6;" parent="1" vertex="1">
          <mxGeometry x="618.5" y="72.5" width="100" height="40" as="geometry" />
        </mxCell>
        <mxCell id="gegUZrvBjKPwMkM6OcZD-82" value="&lt;span style=&quot;font-size: 16px&quot;&gt;营销平台&lt;/span&gt;" style="rounded=0;whiteSpace=wrap;html=1;dashed=1;strokeColor=#0e8088;fontSize=21;fillColor=#b0e3e6;" parent="1" vertex="1">
          <mxGeometry x="618.5" y="22.5" width="100" height="40" as="geometry" />
        </mxCell>
        <mxCell id="gegUZrvBjKPwMkM6OcZD-83" value="&lt;span style=&quot;font-size: 16px&quot;&gt;运营平台&lt;/span&gt;" style="rounded=0;whiteSpace=wrap;html=1;dashed=1;strokeColor=#0e8088;fontSize=21;fillColor=#b0e3e6;" parent="1" vertex="1">
          <mxGeometry x="618.5" y="-27.5" width="100" height="40" as="geometry" />
        </mxCell>
        <mxCell id="gegUZrvBjKPwMkM6OcZD-90" value="" style="rounded=1;whiteSpace=wrap;html=1;strokeColor=#66B2FF;dashed=1;" parent="1" vertex="1">
          <mxGeometry x="137" y="-120" width="593" height="60" as="geometry" />
        </mxCell>
        <mxCell id="gegUZrvBjKPwMkM6OcZD-91" value="入口" style="text;html=1;resizable=0;autosize=1;align=center;verticalAlign=middle;points=[];fillColor=none;strokeColor=none;rounded=0;dashed=1;fontSize=21;" parent="1" vertex="1">
          <mxGeometry x="167" y="-105" width="60" height="30" as="geometry" />
        </mxCell>
        <mxCell id="gegUZrvBjKPwMkM6OcZD-92" value="&lt;span style=&quot;font-size: 16px&quot;&gt;i云保 App&lt;/span&gt;" style="rounded=0;whiteSpace=wrap;html=1;dashed=1;strokeColor=#56517e;fontSize=21;fillColor=#d0cee2;" parent="1" vertex="1">
          <mxGeometry x="-26" y="-40" width="130" height="40" as="geometry" />
        </mxCell>
        <mxCell id="gegUZrvBjKPwMkM6OcZD-94" value="&lt;span style=&quot;font-size: 16px&quot;&gt;APP&lt;/span&gt;" style="rounded=0;whiteSpace=wrap;html=1;dashed=1;strokeColor=#6c8ebf;fontSize=16;fillColor=#dae8fc;gradientColor=#7ea6e0;" parent="1" vertex="1">
          <mxGeometry x="241.75" y="-110" width="77" height="40" as="geometry" />
        </mxCell>
        <mxCell id="gegUZrvBjKPwMkM6OcZD-95" value="H5" style="rounded=0;whiteSpace=wrap;html=1;dashed=1;strokeColor=#6c8ebf;fontSize=16;fillColor=#dae8fc;gradientColor=#7ea6e0;" parent="1" vertex="1">
          <mxGeometry x="444" y="-110" width="77" height="40" as="geometry" />
        </mxCell>
        <mxCell id="gegUZrvBjKPwMkM6OcZD-96" value="小程序" style="rounded=0;whiteSpace=wrap;html=1;dashed=1;strokeColor=#6c8ebf;fontSize=16;fillColor=#dae8fc;gradientColor=#7ea6e0;" parent="1" vertex="1">
          <mxGeometry x="539" y="-110.5" width="77" height="40" as="geometry" />
        </mxCell>
        <mxCell id="gegUZrvBjKPwMkM6OcZD-99" value="&lt;span style=&quot;font-size: 16px&quot;&gt;PC&lt;/span&gt;" style="rounded=0;whiteSpace=wrap;html=1;dashed=1;strokeColor=#6c8ebf;fontSize=16;fillColor=#dae8fc;gradientColor=#7ea6e0;" parent="1" vertex="1">
          <mxGeometry x="345" y="-110.5" width="77" height="40" as="geometry" />
        </mxCell>
        <mxCell id="gegUZrvBjKPwMkM6OcZD-100" value="规则模型" style="rounded=0;whiteSpace=wrap;html=1;dashed=1;strokeColor=none;fontSize=16;fillColor=#fff2cc;" parent="1" vertex="1">
          <mxGeometry x="370" y="417" width="96" height="40" as="geometry" />
        </mxCell>
        <mxCell id="7GG59EkyPDcK3Kt1OEhz-1" value="产品编辑器" style="rounded=0;whiteSpace=wrap;html=1;dashed=1;strokeColor=#82b366;fontSize=16;fillColor=#d5e8d4;" vertex="1" parent="1">
          <mxGeometry x="613" y="336" width="110" height="40" as="geometry" />
        </mxCell>
        <mxCell id="7GG59EkyPDcK3Kt1OEhz-2" value="&lt;span style=&quot;font-size: 16px&quot;&gt;数据同步&lt;/span&gt;" style="rounded=0;whiteSpace=wrap;html=1;dashed=1;strokeColor=#82b366;fontSize=16;fillColor=#d5e8d4;" vertex="1" parent="1">
          <mxGeometry x="484" y="336" width="100" height="40" as="geometry" />
        </mxCell>
        <mxCell id="7GG59EkyPDcK3Kt1OEhz-3" value="&lt;span style=&quot;font-size: 16px&quot;&gt;短信平台&lt;/span&gt;" style="rounded=0;whiteSpace=wrap;html=1;dashed=1;strokeColor=#82b366;fontSize=21;fillColor=#d5e8d4;" vertex="1" parent="1">
          <mxGeometry x="343.5" y="336" width="113" height="40" as="geometry" />
        </mxCell>
        <mxCell id="7GG59EkyPDcK3Kt1OEhz-4" value="&lt;span style=&quot;font-size: 16px&quot;&gt;安全风控&lt;/span&gt;" style="rounded=0;whiteSpace=wrap;html=1;dashed=1;strokeColor=#82b366;fontSize=21;fillColor=#d5e8d4;" vertex="1" parent="1">
          <mxGeometry x="215" y="336" width="100" height="40" as="geometry" />
        </mxCell>
        <mxCell id="7GG59EkyPDcK3Kt1OEhz-8" value="业务系统" style="text;html=1;resizable=0;autosize=1;align=center;verticalAlign=middle;points=[];fillColor=none;strokeColor=none;rounded=0;dashed=1;fontSize=21;" vertex="1" parent="1">
          <mxGeometry x="-8" y="-105" width="94" height="29" as="geometry" />
        </mxCell>
        <mxCell id="7GG59EkyPDcK3Kt1OEhz-11" value="支持层" style="text;html=1;resizable=0;autosize=1;align=center;verticalAlign=middle;points=[];fillColor=none;strokeColor=none;rounded=0;dashed=1;fontSize=21;" vertex="1" parent="1">
          <mxGeometry x="-4" y="499" width="80" height="30" as="geometry" />
        </mxCell>
        <mxCell id="7GG59EkyPDcK3Kt1OEhz-12" value="" style="rounded=1;whiteSpace=wrap;html=1;dashed=1;strokeColor=#66B2FF;fontSize=21;" vertex="1" parent="1">
          <mxGeometry x="740" y="-120" width="170" height="590" as="geometry" />
        </mxCell>
        <mxCell id="7GG59EkyPDcK3Kt1OEhz-13" value="运维体系" style="text;html=1;resizable=0;autosize=1;align=center;verticalAlign=middle;points=[];fillColor=none;strokeColor=none;rounded=0;dashed=1;fontSize=21;" vertex="1" parent="1">
          <mxGeometry x="775" y="-100" width="100" height="30" as="geometry" />
        </mxCell>
        <mxCell id="7GG59EkyPDcK3Kt1OEhz-14" value="安全组件" style="rounded=0;whiteSpace=wrap;html=1;dashed=1;strokeColor=#2D7600;fontSize=16;fillColor=#60a917;fontColor=#ffffff;" vertex="1" parent="1">
          <mxGeometry x="760" y="62" width="130" height="40" as="geometry" />
        </mxCell>
        <mxCell id="7GG59EkyPDcK3Kt1OEhz-15" value="发布平台" style="rounded=0;whiteSpace=wrap;html=1;dashed=1;strokeColor=#2D7600;fontSize=16;fillColor=#60a917;fontColor=#ffffff;" vertex="1" parent="1">
          <mxGeometry x="762" y="416" width="130" height="40" as="geometry" />
        </mxCell>
        <mxCell id="7GG59EkyPDcK3Kt1OEhz-16" value="监控中心" style="rounded=0;whiteSpace=wrap;html=1;dashed=1;strokeColor=#2D7600;fontSize=16;fillColor=#60a917;fontColor=#ffffff;" vertex="1" parent="1">
          <mxGeometry x="762" y="365" width="130" height="40" as="geometry" />
        </mxCell>
        <mxCell id="7GG59EkyPDcK3Kt1OEhz-17" value="日志服务" style="rounded=0;whiteSpace=wrap;html=1;dashed=1;strokeColor=#2D7600;fontSize=16;fillColor=#60a917;fontColor=#ffffff;" vertex="1" parent="1">
          <mxGeometry x="760" y="315" width="130" height="40" as="geometry" />
        </mxCell>
        <mxCell id="7GG59EkyPDcK3Kt1OEhz-18" value="配置中心" style="rounded=0;whiteSpace=wrap;html=1;dashed=1;strokeColor=#2D7600;fontSize=16;fillColor=#60a917;fontColor=#ffffff;" vertex="1" parent="1">
          <mxGeometry x="760" y="264" width="130" height="40" as="geometry" />
        </mxCell>
        <mxCell id="7GG59EkyPDcK3Kt1OEhz-19" value="质量大盘" style="rounded=0;whiteSpace=wrap;html=1;dashed=1;strokeColor=#2D7600;fontSize=16;fillColor=#60a917;fontColor=#ffffff;" vertex="1" parent="1">
          <mxGeometry x="760" y="163" width="130" height="40" as="geometry" />
        </mxCell>
        <mxCell id="7GG59EkyPDcK3Kt1OEhz-20" value="故障管理" style="rounded=0;whiteSpace=wrap;html=1;dashed=1;strokeColor=#2D7600;fontSize=16;fillColor=#60a917;fontColor=#ffffff;" vertex="1" parent="1">
          <mxGeometry x="760" y="112.5" width="130" height="40" as="geometry" />
        </mxCell>
        <mxCell id="7GG59EkyPDcK3Kt1OEhz-21" value="资源管理" style="rounded=0;whiteSpace=wrap;html=1;dashed=1;strokeColor=#2D7600;fontSize=16;fillColor=#60a917;fontColor=#ffffff;" vertex="1" parent="1">
          <mxGeometry x="762" y="10" width="130" height="40" as="geometry" />
        </mxCell>
        <mxCell id="7GG59EkyPDcK3Kt1OEhz-22" value="系统大屏" style="rounded=0;whiteSpace=wrap;html=1;dashed=1;strokeColor=#2D7600;fontSize=16;fillColor=#60a917;fontColor=#ffffff;" vertex="1" parent="1">
          <mxGeometry x="760" y="-40" width="130" height="40" as="geometry" />
        </mxCell>
        <mxCell id="7GG59EkyPDcK3Kt1OEhz-23" value="控制面板" style="rounded=0;whiteSpace=wrap;html=1;dashed=1;strokeColor=#2D7600;fontSize=16;fillColor=#60a917;fontColor=#ffffff;" vertex="1" parent="1">
          <mxGeometry x="760" y="213.5" width="130" height="40" as="geometry" />
        </mxCell>
        <mxCell id="7GG59EkyPDcK3Kt1OEhz-24" value="&lt;span style=&quot;font-size: 16px&quot;&gt;i云服&lt;/span&gt;" style="rounded=0;whiteSpace=wrap;html=1;dashed=1;strokeColor=#56517e;fontSize=21;fillColor=#d0cee2;" vertex="1" parent="1">
          <mxGeometry x="-26" y="40" width="130" height="40" as="geometry" />
        </mxCell>
        <mxCell id="7GG59EkyPDcK3Kt1OEhz-25" value="&lt;span style=&quot;font-size: 16px&quot;&gt;保险中介云平台&lt;/span&gt;" style="rounded=0;whiteSpace=wrap;html=1;dashed=1;strokeColor=#56517e;fontSize=21;fillColor=#d0cee2;" vertex="1" parent="1">
          <mxGeometry x="-26" y="120" width="130" height="40" as="geometry" />
        </mxCell>
        <mxCell id="7GG59EkyPDcK3Kt1OEhz-26" value="&lt;span style=&quot;font-size: 16px&quot;&gt;saas系统&lt;/span&gt;" style="rounded=0;whiteSpace=wrap;html=1;dashed=1;strokeColor=#56517e;fontSize=21;fillColor=#d0cee2;" vertex="1" parent="1">
          <mxGeometry x="-29" y="208" width="130" height="40" as="geometry" />
        </mxCell>
        <mxCell id="7GG59EkyPDcK3Kt1OEhz-27" value="&lt;span style=&quot;font-size: 16px&quot;&gt;微客栈小程序&lt;/span&gt;" style="rounded=0;whiteSpace=wrap;html=1;dashed=1;strokeColor=#56517e;fontSize=21;fillColor=#d0cee2;" vertex="1" parent="1">
          <mxGeometry x="-26" y="296" width="130" height="40" as="geometry" />
        </mxCell>
        <mxCell id="7GG59EkyPDcK3Kt1OEhz-28" value="&lt;span style=&quot;font-size: 16px&quot;&gt;网销平台&lt;/span&gt;" style="rounded=0;whiteSpace=wrap;html=1;dashed=1;strokeColor=#56517e;fontSize=21;fillColor=#d0cee2;" vertex="1" parent="1">
          <mxGeometry x="-26" y="385" width="130" height="40" as="geometry" />
        </mxCell>
        <mxCell id="7GG59EkyPDcK3Kt1OEhz-29" value="API" style="rounded=0;whiteSpace=wrap;html=1;dashed=1;strokeColor=#6c8ebf;fontSize=16;fillColor=#dae8fc;gradientColor=#7ea6e0;" vertex="1" parent="1">
          <mxGeometry x="636.5" y="-110.5" width="77" height="40" as="geometry" />
        </mxCell>
      </root>
    </mxGraphModel>
  </diagram>
</mxfile>
